<svg width="16" height="16" fill="none" xmlns="http://www.w3.org/2000/svg"><path d="M4.8 12.8c-.88 0-1.6.72-1.6 1.6 0 .88.72 1.6 1.6 1.6.88 0 1.6-.72 1.6-1.6 0-.88-.72-1.6-1.6-1.6zM0 0v1.6h1.6l2.88 6.08L3.36 9.6c-.08.24-.16.56-.16.8 0 .88.72 1.6 1.6 1.6h9.6v-1.6H5.12c-.08 0-.16-.08-.16-.16v-.08l.72-1.36h5.92c.64 0 1.12-.32 1.36-.8l2.88-5.2c.16-.16.16-.24.16-.4 0-.48-.32-.8-.8-.8H3.36L2.64 0H0zm12.8 12.8c-.88 0-1.6.72-1.6 1.6 0 .88.72 1.6 1.6 1.6.88 0 1.6-.72 1.6-1.6 0-.88-.72-1.6-1.6-1.6z" fill="#fff"/></svg>