<svg width="20" height="20" fill="none" xmlns="http://www.w3.org/2000/svg"><path d="M15.807 12.389c-.41-.427-.903-.655-1.426-.655-.52 0-1.018.224-1.444.65l-1.334 1.33c-.11-.059-.22-.114-.325-.169a5.389 5.389 0 01-.418-.223c-1.25-.794-2.385-1.828-3.474-3.166-.527-.667-.882-1.229-1.14-1.798.347-.317.667-.646.98-.963.118-.118.236-.24.354-.359.887-.886.887-2.034 0-2.92L6.428 2.962c-.13-.131-.266-.266-.393-.401a19.608 19.608 0 00-.793-.785c-.41-.405-.9-.62-1.414-.62-.515 0-1.013.215-1.435.62l-.009.008L.95 3.233a3.088 3.088 0 00-.916 1.963c-.101 1.232.262 2.38.54 3.132.684 1.845 1.706 3.554 3.23 5.386a19.864 19.864 0 006.614 5.18c.97.46 2.267 1.004 3.715 1.097.088.004.181.008.266.008.975 0 1.794-.35 2.435-1.046.004-.009.013-.013.017-.021.22-.266.473-.507.739-.765.181-.173.367-.354.549-.544.417-.435.637-.941.637-1.46 0-.524-.224-1.026-.65-1.449l-2.318-2.325zm1.512 4.445c-.005 0-.005.004 0 0-.165.177-.334.337-.515.515a10.93 10.93 0 00-.815.844c-.426.456-.929.67-1.587.67-.064 0-.131 0-.194-.003-1.254-.08-2.42-.57-3.293-.988a18.751 18.751 0 01-6.23-4.88c-1.44-1.735-2.402-3.339-3.04-5.06-.392-1.052-.536-1.87-.472-2.643.042-.494.232-.904.582-1.254l1.44-1.44c.206-.194.426-.299.641-.299.266 0 .481.16.617.295l.012.013c.258.24.503.49.76.756.13.135.266.27.401.41l1.152 1.15c.448.448.448.862 0 1.31-.122.121-.24.244-.363.362-.354.363-.692.7-1.06 1.03-.008.008-.016.013-.02.021-.363.363-.296.718-.22.958l.013.038c.3.726.722 1.41 1.363 2.225l.005.004c1.165 1.435 2.393 2.554 3.748 3.41.173.11.35.2.52.284.151.076.295.147.417.223.017.009.034.021.05.03a.915.915 0 00.419.105c.35 0 .57-.22.641-.29l1.444-1.444c.143-.144.371-.317.637-.317.262 0 .477.165.608.308l.008.008 2.326 2.326c.435.43.435.874.005 1.322zM10.81 4.757a5.353 5.353 0 012.913 1.512 5.38 5.38 0 011.512 2.912.566.566 0 00.561.473.57.57 0 00.566-.667 6.51 6.51 0 00-1.828-3.525 6.51 6.51 0 00-3.525-1.827.573.573 0 00-.658.464.564.564 0 00.46.658zm9.168 4.065a10.711 10.711 0 00-3.01-5.804 10.71 10.71 0 00-5.804-3.01.568.568 0 00-.654.465.573.573 0 00.468.659 9.59 9.59 0 015.188 2.688 9.563 9.563 0 012.689 5.188.566.566 0 00.561.473.56.56 0 00.561-.659z" fill="#8EE901"/></svg>