<svg width="40" height="40" fill="none" xmlns="http://www.w3.org/2000/svg"><circle cx="20" cy="20" r="19.5" stroke="#8EE901"/><g clip-path="url(#clip0_2435_3)" fill="#8EE901"><path d="M27.558 12.39H12.446A2.448 2.448 0 0010 14.837v10.33a2.448 2.448 0 002.446 2.445h15.108A2.448 2.448 0 0030 25.165V14.84a2.445 2.445 0 00-2.442-2.45zm1.329 12.775a1.33 1.33 0 01-1.329 1.329H12.446a1.33 1.33 0 01-1.329-1.329V14.84a1.33 1.33 0 011.329-1.328h15.108a1.33 1.33 0 011.329 1.328v10.325h.004z"/><path d="M22.61 19.873l4.892-4.387a.561.561 0 00.042-.79.561.561 0 00-.79-.041l-6.746 6.054-1.316-1.175c-.004-.005-.008-.009-.008-.013a.826.826 0 00-.091-.079l-5.355-4.792a.558.558 0 00-.79.046.558.558 0 00.045.79l4.95 4.424-4.93 4.614a.56.56 0 00.766.82l5.003-4.68 1.358 1.212a.558.558 0 00.744-.004l1.395-1.25 4.974 4.726a.558.558 0 10.77-.811l-4.912-4.664z"/></g><defs><clipPath id="clip0_2435_3"><path fill="#fff" transform="translate(10 10)" d="M0 0h20v20H0z"/></clipPath></defs></svg>