<svg width="20" height="20" fill="none" xmlns="http://www.w3.org/2000/svg"><path d="M0 6.85v8.825a2.442 2.442 0 002.44 2.44h15.12a2.442 2.442 0 002.44-2.44V6.85a2.324 2.324 0 00-2.322-2.322h-3.25l-.077-.34a2.967 2.967 0 00-2.906-2.305H8.55a2.974 2.974 0 00-2.906 2.306l-.078.339H2.322A2.326 2.326 0 000 6.85zm5.967-1.322c.233 0 .433-.16.486-.388l.167-.727a1.974 1.974 0 011.931-1.53h2.894c.926 0 1.718.628 1.93 1.53l.168.727a.502.502 0 00.486.388h3.645c.73 0 1.322.592 1.322 1.322v8.825a1.44 1.44 0 01-1.44 1.44H2.44A1.44 1.44 0 011 15.676V6.85c0-.73.592-1.322 1.322-1.322h3.645z" fill="#000"/><path d="M3.384 8.331a.67.67 0 100-1.339.67.67 0 000 1.339zM10 15.548c2.315 0 4.2-1.885 4.2-4.2 0-2.314-1.885-4.2-4.2-4.2a4.204 4.204 0 00-4.2 4.2c0 2.319 1.886 4.2 4.2 4.2zm0-7.4c1.764 0 3.2 1.437 3.2 3.2 0 1.764-1.436 3.2-3.2 3.2a3.205 3.205 0 01-3.2-3.2c0-1.763 1.438-3.2 3.2-3.2z" fill="#000"/></svg>