<svg width="32" height="33" fill="none" xmlns="http://www.w3.org/2000/svg"><g clip-path="url(#clip0_943_1971)" fill="#000"><path d="M12.496 9.317h12.571a.533.533 0 100-1.067h-12.57a.533.533 0 100 1.067zm0 8h12.571a.533.533 0 100-1.067h-12.57a.533.533 0 100 1.067zm0 8h12.571a.533.533 0 100-1.067h-12.57a.533.533 0 100 1.067z"/><path d="M31.467.25H.533A.533.533 0 000 .783v30.934c0 .295.239.533.533.533h30.934a.533.533 0 00.533-.533V.783a.533.533 0 00-.533-.533zm-.534 30.933H1.067V1.317h29.866v29.866z"/><path d="M6.668 10.103l1.295-.681 1.295.68-.247-1.441 1.047-1.022-1.448-.21-.647-1.312-.648 1.312-1.448.21L6.915 8.66l-.247 1.442zm0 8.044l1.295-.681 1.295.681-.247-1.442 1.047-1.021-1.448-.211-.647-1.312-.648 1.312-1.448.21 1.048 1.022-.247 1.442zm0 8.236l1.295-.68 1.295.68-.247-1.442 1.047-1.021-1.448-.21-.647-1.313-.648 1.312-1.448.21 1.048 1.022-.247 1.442z"/></g><defs><clipPath id="clip0_943_1971"><path fill="#fff" transform="translate(0 .25)" d="M0 0h32v32H0z"/></clipPath></defs></svg>