<svg width="32" height="33" fill="none" xmlns="http://www.w3.org/2000/svg"><g clip-path="url(#clip0_943_1958)" fill="#000"><path d="M16 14.117a3.738 3.738 0 003.734-3.734 3.738 3.738 0 00-3.733-3.733 3.738 3.738 0 00-3.733 3.733A3.738 3.738 0 0016 14.117zm0-6.4a2.67 2.67 0 012.668 2.666A2.67 2.67 0 0116 13.05a2.67 2.67 0 01-2.667-2.667A2.67 2.67 0 0116 7.717z"/><path d="M15.905 29.454l8.182-11.817c3.07-4.091 2.625-10.816-.95-14.39A10.16 10.16 0 0015.905.25c-2.731 0-5.3 1.064-7.232 2.996C5.1 6.82 4.655 13.545 7.711 17.62l8.195 11.834zM9.428 4a9.103 9.103 0 016.477-2.683c2.447 0 4.748.953 6.478 2.683 3.227 3.226 3.624 9.3.84 13.013L15.905 27.58 8.576 16.997C5.804 13.3 6.201 7.226 9.427 4z"/><path d="M22.462 23.187a.533.533 0 00-.125 1.06c5.61.66 8.596 2.439 8.596 3.47 0 1.447-5.68 3.466-14.933 3.466-9.252 0-14.933-2.019-14.933-3.466 0-1.031 2.987-2.81 8.595-3.47a.534.534 0 00-.124-1.06C3.922 23.848 0 25.711 0 27.717c0 2.252 5.496 4.533 16 4.533s16-2.28 16-4.533c0-2.006-3.922-3.869-9.538-4.53z"/></g><defs><clipPath id="clip0_943_1958"><path fill="#fff" transform="translate(0 .25)" d="M0 0h32v32H0z"/></clipPath></defs></svg>