<svg width="32" height="33" fill="none" xmlns="http://www.w3.org/2000/svg"><g clip-path="url(#clip0_943_1965)" fill="#000"><path d="M16 .25c-8.822 0-16 7.178-16 16s7.178 16 16 16 16-7.178 16-16-7.178-16-16-16zm0 30.933c-8.234 0-14.933-6.699-14.933-14.933S7.766 1.317 16 1.317 30.933 8.016 30.933 16.25 24.234 31.183 16 31.183z"/><path d="M16 3.45a.533.533 0 00-.533.533V16.25h-8a.533.533 0 100 1.067H16a.533.533 0 00.534-.534v-12.8A.533.533 0 0016 3.45z"/></g><defs><clipPath id="clip0_943_1965"><path fill="#fff" transform="translate(0 .25)" d="M0 0h32v32H0z"/></clipPath></defs></svg>