<svg width="32" height="32" fill="none" xmlns="http://www.w3.org/2000/svg"><path d="M26.5 11.5h-21A4.505 4.505 0 001 16v10.5A4.505 4.505 0 005.5 31h21a4.505 4.505 0 004.5-4.5V16a4.505 4.505 0 00-4.5-4.5zm3.5 15a3.504 3.504 0 01-3.5 3.5h-21A3.504 3.504 0 012 26.5V16a3.504 3.504 0 013.5-3.5h21A3.504 3.504 0 0130 16v10.5z" fill="#000"/><path d="M27 24.5h-3a1.5 1.5 0 00-1.5 1.5v1a1.5 1.5 0 001.5 1.5h3a1.5 1.5 0 001.5-1.5v-1a1.5 1.5 0 00-1.5-1.5zm.5 2.5a.5.5 0 01-.5.5h-3a.5.5 0 01-.5-.5v-1a.5.5 0 01.5-.5h3a.5.5 0 01.5.5v1zm-19-4a.5.5 0 00-.5-.5H4.5a.5.5 0 000 1H8a.5.5 0 00.5-.5zm5.5 0a.5.5 0 00-.5-.5H10a.5.5 0 000 1h3.5a.5.5 0 00.5-.5zm5-.5h-3.5a.5.5 0 000 1H19a.5.5 0 000-1zm6 .5a.5.5 0 00-.5-.5H21a.5.5 0 000 1h3.5a.5.5 0 00.5-.5zM9.5 27H6a.5.5 0 000 1h3.5a.5.5 0 000-1zm6.5 0h-3.5a.5.5 0 000 1H16a.5.5 0 000-1zM5 18.5h3a1 1 0 001-1v-2a1 1 0 00-1-1H5a1 1 0 00-1 1v2a1 1 0 001 1zm2-1V17h1v.5H7zM8 16H7v-.5h1v.5zm-3-.5h1v2H5v-2zm20.025.44a1.5 1.5 0 012.122 0 .5.5 0 00.707-.708 2.503 2.503 0 00-3.536 0 .5.5 0 00.707.707z" fill="#000"/><path d="M25.025 16.647a.5.5 0 00.707.707.5.5 0 01.708 0 .5.5 0 00.707-.707 1.5 1.5 0 00-2.122 0zM11 15h6.5a.5.5 0 000-1H11a.5.5 0 000 1zm10.5-.5a.5.5 0 00-.5-.5h-1.5a.5.5 0 000 1H21a.5.5 0 00.5-.5z" fill="#000"/></svg>