<svg width="32" height="33" fill="none" xmlns="http://www.w3.org/2000/svg"><g clip-path="url(#clip0_943_1953)" fill="#000"><path d="M31.929 22.237a2.12 2.12 0 00-1.73-1.536V8.541h1.06a.53.53 0 00.53-.53V2.715a.53.53 0 00-.53-.53H7.946a.53.53 0 00-.53.53v5.298c0 .292.237.53.53.53h1.06v10.595h-.53a6.822 6.822 0 00-3.709 1.086v-2.675a.53.53 0 00-.53-.53H.53a.53.53 0 00-.53.53v12.186c0 .292.237.53.53.53h3.708a.53.53 0 00.53-.53V27.06a6.829 6.829 0 003.709 1.085h8.7a6.975 6.975 0 001.784-.235l11.47-3.073a2.128 2.128 0 001.498-2.6zM8.477 3.243h22.252v4.239H8.477V3.243zm1.59 5.298h19.072v12.251l-6.149 1.65a2.13 2.13 0 00-1.401-1.231l-7.139-1.915a4.816 4.816 0 00-1.231-.159h-3.153V8.541zM3.708 29.204h-2.65V18.078h2.65v11.126zm26.448-5.392l-11.469 3.073a5.892 5.892 0 01-1.512.2h-8.7a5.788 5.788 0 01-3.496-1.166l-.212-.159v-4.238l.212-.16a5.785 5.785 0 013.497-1.165h4.742c.323 0 .646.042.96.125l7.135 1.913c.422.116.73.477.779.912a.507.507 0 00.021.064.508.508 0 00-.014.07 1.06 1.06 0 01-1.332 1.003l-4.503-1.208a.53.53 0 10-.275 1.023l4.503 1.209c.18.047.366.07.552.07a2.115 2.115 0 002.099-1.88l6.459-1.733a1.82 1.82 0 01.143-.031 1.06 1.06 0 011.194 1.054c.001.48-.32.9-.783 1.024z"/><path d="M16.954 10.66h5.298a.53.53 0 000-1.059h-5.298a.53.53 0 100 1.06z"/></g><defs><clipPath id="clip0_943_1953"><path fill="#fff" transform="translate(0 .25)" d="M0 0h32v32H0z"/></clipPath></defs></svg>