<svg width="73" height="26" fill="none" xmlns="http://www.w3.org/2000/svg"><path d="M41.253 11.18c1.218.252 2.149.756 2.793 1.512.658.742.987 1.645.987 2.709 0 .868-.238 1.673-.714 2.415-.462.742-1.176 1.344-2.142 1.806-.952.448-2.135.672-3.549.672a12.85 12.85 0 01-3.087-.378c-1.008-.252-1.883-.609-2.625-1.071l1.512-3.129a6.803 6.803 0 001.932.903c.728.21 1.442.315 2.142.315.714 0 1.281-.133 1.701-.399.42-.266.63-.644.63-1.134 0-.952-.749-1.428-2.247-1.428h-1.743v-2.625l2.625-2.835h-5.796V5.3h10.626v2.604l-3.045 3.276zm12.632-.546c.924 0 1.771.196 2.541.588.77.378 1.38.924 1.827 1.638.462.7.693 1.505.693 2.415 0 .994-.259 1.876-.777 2.646-.504.756-1.197 1.344-2.079 1.764-.868.406-1.84.609-2.919.609-2.1 0-3.759-.623-4.977-1.869-1.218-1.246-1.827-3.038-1.827-5.376 0-1.68.322-3.122.966-4.326.658-1.218 1.575-2.142 2.751-2.772 1.176-.63 2.541-.945 4.095-.945.84 0 1.638.091 2.394.273.756.182 1.4.448 1.932.798l-1.512 2.982c-.714-.504-1.617-.756-2.709-.756-1.064 0-1.925.294-2.583.882-.658.588-1.036 1.435-1.134 2.541.84-.728 1.946-1.092 3.318-1.092zm-.966 6.699c.588 0 1.064-.168 1.428-.504.378-.336.567-.791.567-1.365 0-.56-.189-1.008-.567-1.344-.364-.336-.847-.504-1.449-.504-.602 0-1.092.175-1.47.525-.378.336-.567.784-.567 1.344 0 .546.182.994.546 1.344.378.336.882.504 1.512.504zm12.588-6.678c2.058 0 3.577.42 4.557 1.26.994.84 1.491 1.96 1.491 3.36 0 .91-.238 1.75-.714 2.52-.462.756-1.176 1.365-2.142 1.827-.952.448-2.135.672-3.549.672a12.85 12.85 0 01-3.087-.378c-1.008-.252-1.876-.609-2.604-1.071l1.491-3.129a7.18 7.18 0 001.932.903c.714.21 1.428.315 2.142.315s1.281-.133 1.701-.399c.434-.28.651-.665.651-1.155s-.21-.861-.63-1.113c-.42-.252-1.162-.378-2.226-.378h-3.99l.735-8.589h9.366v3.213h-5.922l-.189 2.142h.987z" fill="url(#paint0_linear_2435_18)"/><path d="M8.19 5.3c1.33 0 2.485.224 3.465.672.98.434 1.736 1.064 2.268 1.89.532.812.798 1.771.798 2.877 0 1.106-.266 2.065-.798 2.877-.532.812-1.288 1.442-2.268 1.89-.98.434-2.135.651-3.465.651H5.628V20H1.47V5.3h6.72zm-.252 7.581c.854 0 1.498-.182 1.932-.546.434-.378.651-.91.651-1.596s-.217-1.218-.651-1.596c-.434-.378-1.078-.567-1.932-.567h-2.31v4.305h2.31zm12.968-4.368v3.234h6.49v3.213h-6.49V20h-4.158V5.3h11.53v3.213h-7.372z" fill="#000"/><defs><linearGradient id="paint0_linear_2435_18" x1="73" y1="26" x2="33.377" y2="26" gradientUnits="userSpaceOnUse"><stop stop-color="#8EE901"/><stop offset="1" stop-color="#4F9C2C"/></linearGradient></defs></svg>