<svg width="172" height="26" fill="none" xmlns="http://www.w3.org/2000/svg"><path d="M140.253 11.18c1.218.252 2.149.756 2.793 1.512.658.742.987 1.645.987 2.709 0 .868-.238 1.673-.714 2.415-.462.742-1.176 1.344-2.142 1.806-.952.448-2.135.672-3.549.672a12.85 12.85 0 01-3.087-.378c-1.008-.252-1.883-.609-2.625-1.071l1.512-3.129a6.803 6.803 0 001.932.903c.728.21 1.442.315 2.142.315.714 0 1.281-.133 1.701-.399.42-.266.63-.644.63-1.134 0-.952-.749-1.428-2.247-1.428h-1.743v-2.625l2.625-2.835h-5.796V5.3h10.626v2.604l-3.045 3.276zm12.632-.546c.924 0 1.771.196 2.541.588.77.378 1.379.924 1.827 1.638.462.7.693 1.505.693 2.415 0 .994-.259 1.876-.777 2.646-.504.756-1.197 1.344-2.079 1.764-.868.406-1.841.609-2.919.609-2.1 0-3.759-.623-4.977-1.869-1.218-1.246-1.827-3.038-1.827-5.376 0-1.68.322-3.122.966-4.326.658-1.218 1.575-2.142 2.751-2.772 1.176-.63 2.541-.945 4.095-.945.84 0 1.638.091 2.394.273.756.182 1.4.448 1.932.798l-1.512 2.982c-.714-.504-1.617-.756-2.709-.756-1.064 0-1.925.294-2.583.882-.658.588-1.036 1.435-1.134 2.541.84-.728 1.946-1.092 3.318-1.092zm-.966 6.699c.588 0 1.064-.168 1.428-.504.378-.336.567-.791.567-1.365 0-.56-.189-1.008-.567-1.344-.364-.336-.847-.504-1.449-.504-.602 0-1.092.175-1.47.525-.378.336-.567.784-.567 1.344 0 .546.182.994.546 1.344.378.336.882.504 1.512.504zm12.588-6.678c2.058 0 3.577.42 4.557 1.26.994.84 1.491 1.96 1.491 3.36 0 .91-.238 1.75-.714 2.52-.462.756-1.176 1.365-2.142 1.827-.952.448-2.135.672-3.549.672a12.85 12.85 0 01-3.087-.378c-1.008-.252-1.876-.609-2.604-1.071l1.491-3.129a7.18 7.18 0 001.932.903c.714.21 1.428.315 2.142.315s1.281-.133 1.701-.399c.434-.28.651-.665.651-1.155s-.21-.861-.63-1.113c-.42-.252-1.162-.378-2.226-.378h-3.99l.735-8.589h9.366v3.213h-5.922l-.189 2.142h.987z" fill="url(#paint0_linear_2435_17)"/><path d="M8.442 8.429c1.036 0 1.974.245 2.814.735.854.476 1.526 1.162 2.016 2.058.504.882.756 1.911.756 3.087 0 1.176-.252 2.212-.756 3.108a5.277 5.277 0 01-2.016 2.058c-.84.476-1.778.714-2.814.714-1.33 0-2.387-.399-3.171-1.197v5.082h-3.99V8.618h3.801v1.134c.742-.882 1.862-1.323 3.36-1.323zm-.84 8.589c.7 0 1.274-.238 1.722-.714.448-.49.672-1.155.672-1.995 0-.84-.224-1.498-.672-1.974-.448-.49-1.022-.735-1.722-.735s-1.274.245-1.722.735c-.448.476-.672 1.134-.672 1.974 0 .84.224 1.505.672 1.995.448.476 1.022.714 1.722.714zm12.082-7.035a3.645 3.645 0 011.575-1.155c.658-.266 1.407-.399 2.247-.399v3.591a8.157 8.157 0 00-.903-.063c-.854 0-1.526.231-2.016.693-.476.462-.714 1.169-.714 2.121V20h-3.99V8.618h3.8v1.365zm11.078 10.206c-1.218 0-2.317-.252-3.297-.756s-1.75-1.204-2.31-2.1c-.546-.896-.82-1.911-.82-3.045 0-1.12.274-2.128.82-3.024a5.665 5.665 0 012.289-2.079c.98-.504 2.086-.756 3.318-.756 1.232 0 2.338.252 3.318.756.98.49 1.743 1.183 2.289 2.079.546.882.819 1.89.819 3.024 0 1.134-.273 2.149-.82 3.045-.545.896-1.308 1.596-2.288 2.1-.98.504-2.086.756-3.318.756zm0-3.171c.7 0 1.274-.238 1.722-.714.448-.49.672-1.162.672-2.016 0-.84-.224-1.498-.672-1.974-.448-.476-1.022-.714-1.722-.714s-1.274.238-1.722.714c-.448.476-.672 1.134-.672 1.974 0 .854.224 1.526.672 2.016.448.476 1.022.714 1.722.714zm13.44-1.008l-1.176 1.197V20h-3.99V4.418h3.99v8.169L47.1 8.618h4.725L47.1 13.49 52.224 20h-4.83l-3.192-3.99zm13.876-7.581c1.89 0 3.332.434 4.326 1.302.994.854 1.491 2.17 1.491 3.948V20h-3.717v-1.47c-.574 1.106-1.694 1.659-3.36 1.659-.882 0-1.645-.154-2.289-.462-.644-.308-1.134-.721-1.47-1.239a3.419 3.419 0 01-.483-1.806c0-1.078.413-1.911 1.24-2.499.825-.602 2.1-.903 3.821-.903h2.268c-.07-1.204-.875-1.806-2.415-1.806-.546 0-1.099.091-1.659.273a4.271 4.271 0 00-1.428.714L53.06 9.752c.63-.42 1.393-.742 2.29-.966a10.75 10.75 0 012.73-.357zm-.147 9.24a2.21 2.21 0 001.218-.336c.35-.224.602-.553.756-.987v-.987h-1.722c-1.162 0-1.743.385-1.743 1.155 0 .35.133.63.4.84.265.21.63.315 1.091.315zm16.337 1.869c-.336.21-.75.371-1.24.483a6.681 6.681 0 01-1.532.168c-1.484 0-2.625-.364-3.423-1.092-.798-.728-1.197-1.813-1.197-3.255V12.02h-1.66V9.038h1.66V6.077h3.99v2.961h2.604v2.982h-2.604v3.78c0 .406.105.728.315.966.224.224.518.336.882.336.462 0 .868-.119 1.218-.357l.987 2.793zm1.06-7.056h6.132v3.066h-6.132v-3.066zM88.09 9.038h2.709v2.982h-2.604V20h-3.99v-7.98h-1.66V9.038h1.66v-.294c0-1.386.413-2.485 1.239-3.297.84-.812 2.009-1.218 3.507-1.218.504 0 .994.049 1.47.147.476.098.868.245 1.176.441l-.987 2.814a2.387 2.387 0 00-1.197-.336c-.42 0-.75.126-.987.378-.224.252-.336.623-.336 1.113v.252zm9.773 11.151c-1.218 0-2.317-.252-3.297-.756s-1.75-1.204-2.31-2.1c-.546-.896-.819-1.911-.819-3.045 0-1.12.273-2.128.82-3.024a5.665 5.665 0 012.288-2.079c.98-.504 2.086-.756 3.318-.756 1.232 0 2.338.252 3.318.756.98.49 1.743 1.183 2.289 2.079.546.882.819 1.89.819 3.024 0 1.134-.273 2.149-.819 3.045-.546.896-1.309 1.596-2.289 2.1-.98.504-2.086.756-3.318.756zm0-3.171c.7 0 1.274-.238 1.722-.714.448-.49.672-1.162.672-2.016 0-.84-.224-1.498-.672-1.974-.448-.476-1.022-.714-1.722-.714s-1.274.238-1.722.714c-.448.476-.672 1.134-.672 1.974 0 .854.224 1.526.672 2.016.448.476 1.022.714 1.722.714zm16.128 2.52c-.336.21-.749.371-1.239.483a6.681 6.681 0 01-1.533.168c-1.484 0-2.625-.364-3.423-1.092-.798-.728-1.197-1.813-1.197-3.255V12.02h-1.659V9.038h1.659V6.077h3.99v2.961h2.604v2.982h-2.604v3.78c0 .406.105.728.315.966.224.224.518.336.882.336.462 0 .868-.119 1.218-.357l.987 2.793zm6.923.651c-1.218 0-2.317-.252-3.297-.756s-1.75-1.204-2.31-2.1c-.546-.896-.819-1.911-.819-3.045 0-1.12.273-2.128.819-3.024a5.665 5.665 0 012.289-2.079c.98-.504 2.086-.756 3.318-.756 1.232 0 2.338.252 3.318.756.98.49 1.743 1.183 2.289 2.079.546.882.819 1.89.819 3.024 0 1.134-.273 2.149-.819 3.045-.546.896-1.309 1.596-2.289 2.1-.98.504-2.086.756-3.318.756zm0-3.171c.7 0 1.274-.238 1.722-.714.448-.49.672-1.162.672-2.016 0-.84-.224-1.498-.672-1.974-.448-.476-1.022-.714-1.722-.714s-1.274.238-1.722.714c-.448.476-.672 1.134-.672 1.974 0 .854.224 1.526.672 2.016.448.476 1.022.714 1.722.714z" fill="#000"/><defs><linearGradient id="paint0_linear_2435_17" x1="172" y1="26" x2="132.377" y2="26" gradientUnits="userSpaceOnUse"><stop stop-color="#8EE901"/><stop offset="1" stop-color="#4F9C2C"/></linearGradient></defs></svg>