<svg width="48" height="48" fill="none" xmlns="http://www.w3.org/2000/svg"><g clip-path="url(#clip0_2363_1009)"><path d="M48.001 24c0 7.923-6.4 14.4-14.4 14.4-7.924 0-14.4-6.477-14.4-14.4 0-7.924 6.4-14.4 14.324-14.4 8.076 0 14.476 6.476 14.476 14.4z" fill="#FFB600"/><path d="M33.601 9.6c7.924 0 14.4 6.476 14.4 14.4 0 7.923-6.4 14.4-14.4 14.4-7.924 0-14.4-6.477-14.4-14.4" fill="#F7981D"/><path d="M33.6 9.6C41.523 9.6 48 16.076 48 24c0 7.923-6.4 14.4-14.4 14.4" fill="#FF8500"/><path d="M14.248 9.6C6.4 9.676 0 16.076 0 24c0 7.923 6.4 14.4 14.4 14.4 3.733 0 7.086-1.448 9.676-3.734.534-.457.99-.99 1.448-1.523h-2.972c-.38-.458-.761-.991-1.066-1.448h5.104c.305-.457.61-.99.839-1.524h-6.781a9.076 9.076 0 01-.61-1.524h7.924c.457-1.447.762-2.971.762-4.571 0-1.067-.153-2.057-.305-3.048h-8.838c.076-.533.229-.99.38-1.524h7.925a9.076 9.076 0 00-.61-1.523h-6.705c.229-.534.534-.99.838-1.524h5.105a7.245 7.245 0 00-1.143-1.524h-2.819c.457-.533.915-.99 1.448-1.448-2.514-2.362-5.943-3.733-9.676-3.733 0-.152 0-.152-.076-.152z" fill="#FF5050"/><path d="M0 24c0 7.923 6.4 14.4 14.4 14.4 3.733 0 7.086-1.448 9.676-3.734.534-.457.99-.99 1.448-1.524h-2.972c-.38-.457-.761-.99-1.066-1.447h5.104c.305-.457.61-.99.839-1.524h-6.781a9.08 9.08 0 01-.61-1.524h7.924c.457-1.447.762-2.971.762-4.571 0-1.067-.153-2.057-.305-3.048h-8.838c.076-.533.229-.99.38-1.524h7.925a9.083 9.083 0 00-.61-1.524h-6.705c.229-.533.534-.99.838-1.523h5.105a7.245 7.245 0 00-1.143-1.524h-2.819c.457-.533.915-.99 1.448-1.448-2.514-2.362-5.943-3.733-9.676-3.733h-.076" fill="#E52836"/><path d="M14.399 38.4c3.733 0 7.085-1.448 9.676-3.734.533-.457.99-.99 1.447-1.524h-2.971a17.62 17.62 0 01-1.067-1.447h5.105c.305-.457.61-.99.838-1.524h-6.78a9.08 9.08 0 01-.61-1.524h7.923c.457-1.447.762-2.971.762-4.571 0-1.067-.152-2.057-.305-3.048H19.58c.077-.533.229-.99.381-1.524h7.924a9.091 9.091 0 00-.61-1.524H20.57c.229-.533.533-.99.838-1.523h5.105a7.248 7.248 0 00-1.143-1.524h-2.82c.458-.533.915-.99 1.448-1.448-2.514-2.362-5.942-3.733-9.676-3.733h-.076" fill="#CB2026"/><path d="M19.506 27.658l.229-1.295c-.076 0-.229.076-.381.076-.533 0-.61-.305-.533-.457l.457-2.667h.838l.229-1.448h-.762l.152-.914h-1.524s-.914 5.029-.914 5.638c0 .915.533 1.296 1.219 1.296.457 0 .838-.153.99-.23zm.534-2.438c0 2.133 1.447 2.666 2.666 2.666 1.143 0 1.6-.229 1.6-.229l.304-1.447s-.838.38-1.6.38c-1.676 0-1.37-1.218-1.37-1.218h3.123s.228-.99.228-1.372c0-.99-.533-2.21-2.21-2.21-1.6-.151-2.742 1.525-2.742 3.43zm2.666-2.21c.838 0 .685.99.685 1.067h-1.676c0-.077.153-1.067.99-1.067zm9.676 4.648l.305-1.676s-.762.38-1.296.38c-1.066 0-1.523-.837-1.523-1.752 0-1.828.914-2.819 1.98-2.819.763 0 1.372.457 1.372.457l.229-1.6s-.915-.38-1.753-.38c-1.752 0-3.505 1.523-3.505 4.419 0 1.904.915 3.2 2.743 3.2.61 0 1.448-.229 1.448-.229zm-21.256-6.019c-1.067 0-1.829.304-1.829.304L9.07 23.24s.685-.305 1.676-.305c.533 0 .99.076.99.533 0 .305-.076.381-.076.381h-.686c-1.295 0-2.743.534-2.743 2.286 0 1.371.915 1.676 1.448 1.676 1.067 0 1.524-.686 1.6-.686l-.076.61h1.371l.61-4.19c0-1.83-1.524-1.905-2.057-1.905zm.305 3.428c0 .229-.153 1.448-1.067 1.448-.457 0-.61-.381-.61-.61 0-.38.229-.914 1.372-.914.228.076.305.076.305.076zm3.199 2.743c.38 0 2.285.076 2.285-1.98 0-1.906-1.829-1.525-1.829-2.286 0-.381.305-.534.839-.534.228 0 1.066.076 1.066.076l.229-1.371s-.534-.152-1.448-.152c-1.143 0-2.286.457-2.286 1.98 0 1.753 1.905 1.6 1.905 2.286 0 .457-.533.534-.914.534-.686 0-1.372-.23-1.372-.23l-.228 1.372c.076.153.457.305 1.752.305zm30.4-7.39l-.304 2.057s-.61-.762-1.448-.762c-1.371 0-2.59 1.676-2.59 3.657 0 1.22.609 2.515 1.904 2.515.915 0 1.448-.61 1.448-.61l-.076.533h1.523l1.143-7.314-1.6-.076zm-.685 4.038c0 .838-.381 1.905-1.22 1.905-.533 0-.837-.457-.837-1.22 0-1.218.533-1.98 1.219-1.98.533 0 .838.38.838 1.295zM2.82 27.734l.915-5.486.152 5.486h1.067l1.981-5.486-.838 5.486h1.6l1.219-7.314H6.402l-1.524 4.495-.076-4.495h-2.21l-1.219 7.314h1.448zm23.618 0c.457-2.514.533-4.572 1.6-4.19.152-.991.38-1.372.533-1.753h-.305c-.685 0-1.219.914-1.219.914l.153-.838h-1.448l-.99 5.943h1.676v-.076zm9.449-6.095c-1.066 0-1.828.304-1.828.304l-.229 1.296s.686-.305 1.677-.305c.533 0 .99.076.99.533 0 .305-.076.381-.076.381h-.686c-1.295 0-2.743.534-2.743 2.286 0 1.371.915 1.676 1.448 1.676 1.067 0 1.524-.686 1.6-.686l-.076.61h1.371l.61-4.19c.076-1.83-1.524-1.905-2.058-1.905zm.381 3.428c0 .229-.152 1.448-1.066 1.448-.457 0-.61-.381-.61-.61 0-.38.229-.914 1.372-.914.228.076.228.076.304.076zm2.971 2.667c.457-2.514.533-4.572 1.6-4.19.152-.991.38-1.372.533-1.753h-.305c-.685 0-1.219.914-1.219.914l.153-.838h-1.448l-.99 5.943h1.676v-.076z" fill="#fff"/><path d="M17.145 26.591c0 .915.533 1.296 1.219 1.296.533 0 .99-.153 1.142-.23l.229-1.294c-.076 0-.229.076-.38.076-.534 0-.61-.305-.534-.457l.457-2.667h.838l.229-1.448h-.762l.152-.914m1.068 4.267c0 2.133.685 2.666 1.904 2.666 1.143 0 1.6-.229 1.6-.229l.305-1.447s-.838.38-1.6.38c-1.676 0-1.371-1.218-1.371-1.218h3.124s.228-.99.228-1.372c0-.99-.533-2.21-2.21-2.21-1.6-.151-1.98 1.525-1.98 3.43zm1.904-2.21c.839 0 .991.99.991 1.067h-1.981c0-.077.152-1.067.99-1.067zm9.675 4.648l.305-1.676s-.762.38-1.296.38c-1.066 0-1.524-.837-1.524-1.752 0-1.828.915-2.819 1.981-2.819.762 0 1.372.457 1.372.457l.228-1.6s-.914-.38-1.752-.38c-1.752 0-2.743 1.523-2.743 4.419 0 1.904.152 3.2 1.981 3.2.61 0 1.448-.229 1.448-.229zM9.069 23.315s.685-.305 1.676-.305c.533 0 .99.076.99.533 0 .305-.076.381-.076.381h-.686c-1.295 0-2.743.534-2.743 2.286 0 1.371.915 1.676 1.448 1.676 1.067 0 1.524-.685 1.6-.685l-.076.61h1.371l.61-4.191c0-1.753-1.524-1.829-2.133-1.829l-1.981 1.524zm3.123 1.752c0 .229-.914 1.448-1.828 1.448-.457 0-.61-.381-.61-.61 0-.38.229-.914 1.372-.914.228.076 1.066.076 1.066.076zm.761 2.591s.457.152 1.753.152c.38 0 2.285.076 2.285-1.98 0-1.906-1.828-1.525-1.828-2.286 0-.381.304-.534.838-.534.228 0 1.066.076 1.066.076l.229-1.371s-.533-.152-1.448-.152c-1.143 0-1.523.457-1.523 1.98 0 1.753 1.142 1.6 1.142 2.286 0 .457-.533.534-.914.534m30.172-3.886s-.61-.762-1.447-.762c-1.372 0-1.83 1.676-1.83 3.657 0 1.22-.151 2.515 1.144 2.515.914 0 1.447-.61 1.447-.61l-.076.533h1.524l1.143-7.314-1.905 1.981zm-.076 1.981c0 .838-.686 1.905-1.524 1.905-.533 0-.838-.457-.838-1.22 0-1.218.533-1.98 1.219-1.98.533 0 1.143.38 1.143 1.295zM2.82 27.734l.915-5.486.152 5.486h1.067l1.981-5.486-.838 5.486h1.6l1.219-7.314H7.01l-2.133 4.495-.076-4.495h-.838l-2.591 7.314H2.82zm22.02 0h1.6c.457-2.514.533-4.572 1.6-4.19.152-.991.38-1.372.533-1.753h-.305c-.685 0-1.219.914-1.219.914l.153-.838m6.628 1.448s.686-.305 1.677-.305c.533 0 .99.076.99.533 0 .305-.076.381-.076.381h-.686c-1.295 0-2.743.534-2.743 2.286 0 1.371.915 1.676 1.448 1.676 1.067 0 1.524-.685 1.6-.685l-.076.61h1.371l.61-4.191c0-1.753-1.524-1.829-2.134-1.829l-1.98 1.524zm3.124 1.752c0 .229-.914 1.448-1.828 1.448-.458 0-.61-.381-.61-.61 0-.38.229-.914 1.371-.914.305.076 1.067.076 1.067.076zm.686 2.667h1.6c.458-2.514.534-4.572 1.6-4.19.153-.991.382-1.372.534-1.753h-.305c-.686 0-1.219.914-1.219.914l.152-.838" fill="#DCE5E5"/></g><defs><clipPath id="clip0_2363_1009"><path fill="#fff" d="M0 0h48v48H0z"/></clipPath></defs></svg>