<svg width="32" height="32" fill="none" xmlns="http://www.w3.org/2000/svg"><g clip-path="url(#clip0_2363_1193)" fill="#000"><path d="M27.601 11.654c-6.426-6.427-16.882-6.427-23.309 0L0 15.946l4.399 4.399a16.431 16.431 0 0011.654 4.82 16.43 16.43 0 0011.655-4.82l4.293-4.293-4.4-4.398zm-.658 7.926c-6.005 6.005-15.775 6.005-21.78 0L1.53 15.946l3.528-3.528c6.005-6.005 15.775-6.005 21.78 0l3.634 3.634-3.528 3.528z"/><path d="M15.444 11.658a3.788 3.788 0 00-3.784 3.784.54.54 0 001.081 0 2.706 2.706 0 012.703-2.703.54.54 0 000-1.08z"/><path d="M15.984 8.955a7.035 7.035 0 00-7.027 7.027 7.035 7.035 0 007.027 7.027 7.035 7.035 0 007.027-7.027 7.035 7.035 0 00-7.027-7.027zm0 12.973a5.953 5.953 0 01-5.946-5.946 5.953 5.953 0 015.946-5.946 5.953 5.953 0 015.946 5.946 5.953 5.953 0 01-5.946 5.946z"/></g><defs><clipPath id="clip0_2363_1193"><path fill="#fff" d="M0 0h32v32H0z"/></clipPath></defs></svg>