<svg width="32" height="32" fill="none" xmlns="http://www.w3.org/2000/svg"><path d="M29.305 15.067c.01-.037.021-.072.023-.11 0-.008.005-.015.005-.024 0-7.173-5.695-13.038-12.8-13.32V.533a.533.533 0 10-1.067 0v1.08c-7.106.282-12.8 6.147-12.8 13.32 0 .009.004.016.005.024.001.038.012.073.022.11.009.032.014.064.027.092.013.029.034.052.052.078.023.031.043.063.072.089.006.005.009.013.015.018.02.017.043.022.063.035.031.02.061.04.097.052.037.014.075.018.114.023.023.002.043.013.066.013.008 0 .015-.005.023-.005.04-.001.078-.012.117-.023.029-.008.058-.012.084-.025.03-.014.056-.036.084-.056.029-.022.059-.041.083-.068.006-.006.014-.009.02-.016.752-.908 1.743-1.407 2.79-1.407 1.046 0 2.037.5 2.789 1.407.01.012.025.017.036.028.013.013.02.03.034.042.021.018.047.024.07.038.027.016.052.033.08.044a.5.5 0 00.133.028c.02.002.038.013.057.013.009 0 .017-.004.025-.005.027 0 .052-.008.079-.013a.5.5 0 00.106-.031.48.48 0 00.076-.044c.017-.01.037-.017.054-.03.012-.011.018-.026.03-.038s.029-.018.04-.032c.753-.908 1.744-1.407 2.79-1.407.992 0 1.931.453 2.667 1.272v14.194c0 .883-.718 1.6-1.6 1.6-.882 0-1.6-.718-1.6-1.6a.533.533 0 10-1.067 0A2.67 2.67 0 0013.866 32a2.67 2.67 0 002.667-2.667V15.14c.736-.819 1.674-1.272 2.666-1.272 1.047 0 2.038.5 2.79 1.407.01.012.025.017.037.028.012.013.019.03.033.042.021.018.047.024.07.037.027.017.052.033.081.045a.516.516 0 00.133.028c.019.002.037.013.056.013.009 0 .017-.004.025-.005.027 0 .053-.008.08-.014a.535.535 0 00.105-.03.5.5 0 00.076-.044c.018-.01.038-.017.054-.03.013-.01.019-.026.03-.037.012-.013.029-.019.04-.033.753-.908 1.744-1.407 2.79-1.407 1.047 0 2.038.5 2.79 1.407.005.007.012.008.018.015a.536.536 0 00.131.1c.017.01.03.024.047.031a.532.532 0 00.214.047.517.517 0 00.193-.04c.024-.009.044-.024.066-.037.027-.016.057-.026.081-.046.006-.006.01-.013.015-.02.029-.025.05-.056.072-.088.018-.026.039-.05.052-.078.014-.028.02-.06.027-.09zM25.6 12.8c-1.183 0-2.3.477-3.2 1.351-.9-.874-2.017-1.351-3.2-1.351-1.183 0-2.3.477-3.2 1.351-.9-.874-2.017-1.351-3.2-1.351-1.183 0-2.3.477-3.2 1.351-.9-.874-2.017-1.351-3.2-1.351-.933 0-1.823.302-2.6.856C4.44 7.49 9.667 2.666 16 2.666c6.333 0 11.56 4.824 12.2 10.99-.777-.554-1.666-.856-2.6-.856z" fill="#000"/></svg>