<svg width="32" height="32" fill="none" xmlns="http://www.w3.org/2000/svg"><path d="M23.668 2.482A2.763 2.763 0 0020.965.275a.551.551 0 100 1.104c.913 0 1.656.742 1.656 1.655s-.743 1.655-1.655 1.655a.551.551 0 100 1.104c1.331 0 2.446-.95 2.702-2.207h7.229V8.55H1.103V3.586h9.38a.551.551 0 100-1.104H9.48a1.652 1.652 0 011.553-1.103c.913 0 1.656.742 1.656 1.655s-.743 1.655-1.655 1.655a.551.551 0 100 1.104 2.762 2.762 0 002.758-2.759A2.762 2.762 0 0011.035.275c-1.332 0-2.447.95-2.703 2.207H0v29.242h32V2.482h-8.332zm7.229 28.138H1.103V9.655h29.794V30.62z" fill="#000"/><path d="M14.345 1.379c.912 0 1.655.742 1.655 1.655s-.743 1.655-1.655 1.655a.551.551 0 100 1.104 2.762 2.762 0 002.758-2.759A2.762 2.762 0 0014.345.275a.551.551 0 100 1.104z" fill="#000"/><path d="M17.655 1.379c.913 0 1.655.742 1.655 1.655s-.742 1.655-1.655 1.655a.551.551 0 100 1.104 2.762 2.762 0 002.759-2.759A2.762 2.762 0 0017.655.275a.551.551 0 100 1.104zm-5.517 12.689a.552.552 0 100-1.103.552.552 0 000 1.103zm3.862 0a.552.552 0 10.001-1.103.552.552 0 000 1.103zm3.862 0a.552.552 0 100-1.103.552.552 0 000 1.103zm3.862 0a.552.552 0 100-1.103.552.552 0 000 1.103zm3.863 0a.552.552 0 100-1.103.552.552 0 000 1.103zM4.413 18.482a.552.552 0 100-1.103.552.552 0 000 1.103zm3.863 0a.552.552 0 100-1.103.552.552 0 000 1.103zm3.862 0a.552.552 0 100-1.103.552.552 0 000 1.103zm3.862 0a.552.552 0 100-1.103.552.552 0 000 1.103zm3.862 0a.552.552 0 100-1.103.552.552 0 000 1.103zm3.862 0a.552.552 0 100-1.103.552.552 0 000 1.103zm3.863 0a.552.552 0 100-1.103.552.552 0 000 1.103zM4.413 22.344a.552.552 0 100-1.104.552.552 0 000 1.104zm3.863 0a.552.552 0 100-1.104.552.552 0 000 1.104zm3.862 0a.552.552 0 100-1.104.552.552 0 000 1.104zm3.862 0a.552.552 0 10.001-1.104.552.552 0 000 1.104zm3.862 0a.552.552 0 100-1.104.552.552 0 000 1.104zm3.862 0a.552.552 0 100-1.104.552.552 0 000 1.104zm3.863 0a.552.552 0 100-1.104.552.552 0 000 1.104zM4.413 26.758a.552.552 0 100-1.104.552.552 0 000 1.104zm3.863 0a.552.552 0 100-1.104.552.552 0 000 1.104zm3.862 0a.552.552 0 100-1.104.552.552 0 000 1.104zm3.862 0a.552.552 0 10.001-1.104.552.552 0 000 1.104zm3.862 0a.552.552 0 100-1.104.552.552 0 000 1.104z" fill="#000"/></svg>