<svg width="32" height="32" fill="none" xmlns="http://www.w3.org/2000/svg"><g clip-path="url(#clip0_2363_1238)"><path d="M31.992 10.756a.528.528 0 00-.028-.283c-.005-.013-.006-.026-.012-.038-.004-.01-.012-.016-.017-.026-.004-.009-.006-.018-.012-.027L26.59 1.846a.551.551 0 00-.086-.105H26.5a.524.524 0 00-.158-.1c-.008-.003-.013-.009-.02-.012-.006-.002-.013-.001-.019-.003a.522.522 0 00-.167-.03H5.865a.521.521 0 00-.165.03c-.006.001-.012 0-.017.002-.008.003-.013.01-.02.013a.532.532 0 00-.154.093c-.002.003-.006.004-.009.006a.536.536 0 00-.087.106L.08 10.38c-.005.009-.008.019-.012.028-.005.009-.013.016-.017.025-.006.012-.007.026-.012.038a.53.53 0 00.013.421l.012.03c.008.016.021.027.03.042.008.011.013.023.022.034L15.58 30.195l.003.004.003.003c.001.003.004.003.006.005a.521.521 0 00.205.148.527.527 0 00.204.046c.06 0 .122-.01.183-.032.009-.003.015-.01.024-.015.027-.01.049-.029.073-.044a.515.515 0 00.11-.087c.007-.008.019-.012.026-.02l15.47-19.205c.008-.01.013-.024.02-.034.01-.015.023-.026.032-.042.005-.01.007-.02.011-.03a.653.653 0 00.044-.137zm-14.87-8.093h8.246l-2.593 6.96-5.654-6.96zm4.692 7.469H10.186L16 2.976l5.814 7.156zM9.187 9.669l-2.56-7.006h8.252L9.187 9.67zm13.001 1.53l-6.281 16.86-6.161-16.86h12.442zm4.07-7.867l4.25 6.8h-6.784l2.533-6.8zm-20.52.007l2.482 6.793H1.493l4.245-6.793zm2.872 7.86l5.782 15.824L1.645 11.198H8.61zm8.669 16.233l6.047-16.233h7.03L17.278 27.431z" fill="#000"/></g><defs><clipPath id="clip0_2363_1238"><path fill="#fff" d="M0 0h32v32H0z"/></clipPath></defs></svg>