<svg width="116" height="14" fill="none" xmlns="http://www.w3.org/2000/svg"><g clip-path="url(#clip0_2363_1004)"><path d="M1.156.17C.706.377.304.803.134 1.254.049 1.485 0 3.652 0 7.62v6.013h2.8V9.859h3.724l.974 1.887.962 1.887h1.618c.877 0 1.607-.037 1.607-.073 0-.049-.499-1.047-1.12-2.216L9.458 9.203l.292-.182c1.643-1.084 2.373-3.214 1.935-5.648-.28-1.486-.998-2.533-2.105-3.02-.62-.28-.73-.292-4.346-.316-2.921-.025-3.786 0-4.078.133zm7.06 2.751c.195.073.39.292.5.572.23.548.255 1.948.048 2.362-.523 1.01-1.169 1.205-3.92 1.205H2.8V2.8h2.544c1.4 0 2.69.048 2.872.121zM15.824.11c-1.205.365-2.07 1.229-2.435 2.41-.292.95-.608 3.189-.608 4.272 0 1.047.292 3.177.547 4.041.45 1.497 1.218 2.264 2.63 2.63.608.158 1.253.182 3.323.146 2.373-.037 2.617-.074 3.213-.33 1.716-.766 2.459-2.714 2.459-6.463-.012-3.943-.78-5.89-2.593-6.56-.645-.232-.925-.256-3.469-.244-1.521 0-2.897.049-3.067.098zm5.66 2.97c.815 1.12.803 6.633-.025 7.449-.243.255-4.93.268-5.136.024-.572-.694-.78-4.698-.341-6.573.183-.742.28-.973.487-1.059.146-.06 1.302-.097 2.556-.085 2.057.025 2.313.049 2.459.244zM27.582.268c-.268.158-.597.475-.73.706-.244.414-.256.633-.293 5.502-.024 3.396.013 5.234.098 5.574.207.755.742 1.303 1.473 1.449.754.17 6.122.17 7.084.012 1.874-.304 2.836-1.4 2.97-3.408.085-1.132-.097-1.972-.572-2.727l-.353-.547.45-.877c.438-.84.45-.925.45-2.106 0-1.01-.06-1.338-.28-1.838C37.528 1.242 37.1.791 36.334.39l-.609-.33-3.834-.036C28.093 0 28.057 0 27.582.268zm7.535 2.678c.17.17.28.986.17 1.363-.061.22-.256.523-.426.694-.304.292-.353.292-2.86.328l-2.544.037v-2.58l2.787.036c1.534.024 2.824.073 2.873.122zm-.536 5.428c.487.195.755.719.742 1.412-.012.439-.073.658-.219.767-.158.122-.925.158-2.933.158h-2.715v-2.58l2.41.049c1.315.036 2.544.121 2.715.194zM42.26.256c-1.18.462-1.777 1.29-2.24 3.116-.23.925-.267 1.412-.267 3.444 0 2.216.024 2.46.329 3.591.377 1.376.73 1.972 1.436 2.495.876.621 1.144.67 4.248.67s3.372-.049 4.248-.67c.706-.523 1.06-1.12 1.436-2.495.305-1.132.33-1.375.33-3.59 0-2.033-.038-2.52-.269-3.445-.462-1.85-1.059-2.666-2.276-3.116C48.615.024 48.31 0 45.73.012c-2.544 0-2.885.025-3.47.244zm5.867 2.665c.33.122.475.5.706 1.875.292 1.692.037 4.88-.45 5.623-.182.292-.195.292-2.617.292-2.848 0-2.678.086-2.994-1.533-.45-2.24-.086-5.977.596-6.257.365-.146 4.37-.146 4.76 0z" fill="#276EB8"/><path d="M54.057.378l-.377.378v12.05l.353.353c.316.304.45.353 1.07.353.597 0 .768-.049.987-.28.426-.45.511-.974.511-3.092V8.156h1.79l.9.78c1.802 1.545 2.422 2.373 2.422 3.2 0 .463.061.61.414.962.365.365.487.414 1.035.414.511 0 .681-.06 1.01-.353.39-.34.402-.39.39-1.278-.013-.767-.073-1.047-.39-1.692-.426-.852-1.667-2.374-2.447-2.994l-.51-.402.79-.718c.95-.877 1.826-2.009 2.24-2.897.231-.511.304-.877.316-1.558.013-.877 0-.925-.389-1.266C63.819.037 63.685 0 63.004 0c-.706 0-.816.036-1.035.316-.17.22-.256.5-.256.865 0 .292-.073.706-.17.925-.207.51-1.132 1.521-2.252 2.483l-.9.767H56.6V3.373c0-1.084-.06-2.18-.122-2.423-.182-.657-.62-.95-1.412-.95-.547 0-.694.05-1.01.378zM69.552.171c-1.643.524-2.544 1.692-3.177 4.078-.292 1.071-.316 1.436-.365 4.528-.073 3.652-.024 4.053.536 4.492.401.316 1.436.328 1.813.024.438-.353.536-.694.536-1.96v-1.23h6.33v1.352c0 1.327 0 1.351.352 1.704.317.304.45.353 1.047.353.62 0 .73-.037 1.059-.39l.353-.39-.037-3.894c-.048-3.603-.072-3.98-.316-4.796-.584-1.923-1.436-3.128-2.58-3.664-.633-.292-.804-.316-2.86-.34-1.559-.025-2.338.012-2.69.133zm4.2 2.763c.669.232 1.241 1.704 1.4 3.542l.06.828h-6.354l.085-.974c.147-1.716.816-3.323 1.437-3.444.596-.11 3.006-.073 3.371.048zM81.857.171c-1.193.378-1.862.962-2.276 2.02-.207.536-.268.926-.268 1.888 0 1.947.584 3.055 1.96 3.724.548.268.767.292 3.165.353 2.483.061 2.592.073 2.86.341.353.353.39 1.388.06 1.887l-.206.328h-3.274c-3.092 0-3.287.013-3.579.244-.682.535-.706 1.704-.06 2.252l.364.304h3.542c1.972 0 3.75-.06 3.993-.122.67-.182 1.388-.888 1.838-1.801.377-.767.401-.877.401-2.155 0-1.193-.036-1.412-.316-2.008-.402-.852-.95-1.485-1.546-1.777-.39-.195-.84-.244-3.225-.292-3.226-.073-3.129-.025-3.129-1.278 0-1.266-.182-1.205 3.7-1.278l3.36-.061.329-.329c.292-.292.328-.438.377-1.363L89.99 0l-3.822.012c-2.727 0-3.956.049-4.309.158zm12.05 0a8.276 8.276 0 00-.852.341c-1.57.828-2.227 3.603-1.326 5.575.377.828.79 1.266 1.57 1.68.584.316.681.328 3.043.365 1.339.012 2.58.097 2.763.158.426.17.633.791.523 1.522-.134.925-.036.9-3.724.9h-3.299l-.353.353c-.304.317-.353.45-.353 1.047s.049.73.353 1.047l.353.353h3.676c4.09 0 4.187-.012 5.039-.828.743-.718 1.084-1.57 1.144-2.97.073-1.619-.231-2.568-1.132-3.457-.401-.401-.803-.681-1.107-.766-.268-.073-1.485-.134-2.739-.134-1.254 0-2.434-.037-2.641-.073-.439-.086-.633-.463-.633-1.205 0-.743.195-1.12.633-1.205.207-.037 1.68-.073 3.286-.073 3.786 0 3.871-.05 3.871-1.887V0l-3.798.012c-2.714 0-3.956.049-4.297.158zm13.341.073c-.353.122-.84.378-1.071.56-.974.743-1.85 2.69-2.094 4.674-.182 1.388-.17 6.792 0 7.292.171.474.658.742 1.376.742.438 0 .633-.073.949-.353l.402-.353.036-1.351.049-1.351h6.159l.049 1.35.036 1.352.402.353c.316.292.499.353.998.353s.682-.06.998-.353l.402-.353-.012-3.822c-.012-3.493-.025-3.883-.268-4.76-.548-2.008-1.363-3.225-2.544-3.81-.694-.34-.755-.352-2.958-.377-1.984-.036-2.325-.012-2.909.207zm4.869 3.043c.487.572.852 1.79.925 3.007l.073 1.01h-6.244v-.742c0-1.546.681-3.348 1.363-3.64.158-.06 1.01-.097 1.911-.085l1.619.024.353.426z" fill="#D61E2F"/></g><defs><clipPath id="clip0_2363_1004"><path fill="#fff" d="M0 0h116v13.633H0z"/></clipPath></defs></svg>