<svg width="20" height="20" fill="none" xmlns="http://www.w3.org/2000/svg"><g clip-path="url(#clip0_2388_1644)"><path d="M4.04 19.528a.357.357 0 01-.352-.418l1.106-6.45L.108 8.091a.358.358 0 01.199-.61l6.476-.942L9.679.671a.357.357 0 01.642 0l2.896 5.869 6.476.941a.359.359 0 01.2.61l-4.687 4.569 1.106 6.45a.359.359 0 01-.52.377L10 16.442l-5.793 3.045a.36.36 0 01-.166.041zM1.128 8.085l4.302 4.193a.359.359 0 01.103.317l-1.016 5.92 5.318-2.795a.357.357 0 01.333 0l5.317 2.796-1.015-5.92a.358.358 0 01.102-.318l4.302-4.193-5.945-.864a.358.358 0 01-.27-.196L10 1.64 7.341 7.026a.358.358 0 01-.27.196l-5.944.863z" fill="#000"/></g><defs><clipPath id="clip0_2388_1644"><path fill="#fff" d="M0 0h20v20H0z"/></clipPath></defs></svg>