<svg width="20" height="20" fill="none" xmlns="http://www.w3.org/2000/svg"><path d="M4.04 19.056a.357.357 0 01-.352-.418l1.106-6.45L.108 7.62a.358.358 0 01.199-.61l6.476-.942L9.679.2a.357.357 0 01.642 0l2.896 5.868 6.476.942a.359.359 0 01.2.61l-4.687 4.568 1.106 6.45a.359.359 0 01-.52.377L10 15.97l-5.793 3.045a.36.36 0 01-.166.041zM1.128 7.613l4.302 4.194c.084.082.123.2.103.316l-1.016 5.92 5.318-2.794a.357.357 0 01.333 0l5.317 2.795-1.015-5.92a.358.358 0 01.102-.317l4.302-4.194-5.945-.863a.358.358 0 01-.27-.196L10 1.167 7.341 6.554a.358.358 0 01-.27.196l-5.944.863z" fill="#60B021"/></svg>