<svg width="32" height="32" fill="none" xmlns="http://www.w3.org/2000/svg"><g clip-path="url(#clip0_2363_1075)"><path d="M16 32c8.836 0 16-7.164 16-16 0-8.837-7.164-16-16-16C7.163 0 0 7.163 0 16c0 8.836 7.163 16 16 16z" fill="#55ACEE"/><path d="M25.801 11.498a7.63 7.63 0 01-2.197.602 3.835 3.835 0 001.682-2.115 7.656 7.656 0 01-2.428.927 3.825 3.825 0 00-6.517 3.489 10.856 10.856 0 01-7.883-3.996A3.824 3.824 0 009.64 15.51a3.798 3.798 0 01-1.732-.479v.049a3.827 3.827 0 003.068 3.75 3.813 3.813 0 01-1.727.065 3.828 3.828 0 003.572 2.656 7.673 7.673 0 01-5.662 1.584 10.817 10.817 0 005.862 1.718c7.035 0 10.882-5.827 10.882-10.882 0-.165-.004-.33-.012-.494a7.755 7.755 0 001.91-1.98z" fill="#F1F2F2"/></g><defs><clipPath id="clip0_2363_1075"><path fill="#fff" d="M0 0h32v32H0z"/></clipPath></defs></svg>