<svg width="16" height="20" fill="none" xmlns="http://www.w3.org/2000/svg"><path d="M13.268 7.622V5.774C13.268 3.142 10.905 1 8.001 1 5.096 1 2.733 3.142 2.733 5.774v1.848A2.382 2.382 0 00.758 9.965v6.433a2.383 2.383 0 002.38 2.38h9.726a2.383 2.383 0 002.38-2.38V9.964a2.38 2.38 0 00-1.976-2.342zM3.392 5.774c0-2.27 2.067-4.116 4.609-4.116 2.541 0 4.609 1.846 4.609 4.116v1.81H3.392v-1.81zm11.193 10.624c0 .949-.772 1.721-1.722 1.721H3.139c-.95 0-1.722-.772-1.722-1.721V9.964c0-.949.773-1.721 1.722-1.721h9.726c.949 0 1.721.772 1.721 1.721v6.434z" fill="#000"/><path d="M8 10.218c-.726 0-1.316.59-1.316 1.317v1.975a1.317 1.317 0 002.633 0v-1.975c0-.727-.59-1.317-1.317-1.317zm.659 3.292a.66.66 0 01-1.317 0v-1.975a.66.66 0 011.317 0v1.975z" fill="#000"/></svg>