<svg width="48" height="48" fill="none" xmlns="http://www.w3.org/2000/svg"><g clip-path="url(#clip0_2363_1038)"><path d="M17.6 30.896l2.438-13.714h3.81l-2.363 13.714H17.6z" fill="#3C58BF"/><path d="M17.6 30.896l3.123-13.714h3.124l-2.362 13.714H17.6z" fill="#293688"/><path d="M35.276 17.334c-.762-.305-1.98-.61-3.505-.61-3.809 0-6.552 1.905-6.552 4.648 0 2.057 1.905 3.124 3.429 3.81 1.524.686 1.98 1.143 1.98 1.752 0 .914-1.218 1.372-2.285 1.372-1.524 0-2.362-.229-3.657-.762l-.534-.229-.533 3.124c.914.38 2.59.762 4.343.762 4.038 0 6.705-1.905 6.705-4.8 0-1.6-.99-2.82-3.276-3.81-1.372-.685-2.21-1.066-2.21-1.752 0-.61.686-1.22 2.21-1.22 1.295 0 2.21.23 2.895.534l.38.153.61-2.972z" fill="#3C58BF"/><path d="M35.276 17.334c-.762-.305-1.98-.61-3.505-.61-3.809 0-5.866 1.905-5.866 4.648 0 2.057 1.219 3.124 2.743 3.81 1.524.686 1.98 1.143 1.98 1.752 0 .914-1.218 1.372-2.285 1.372-1.524 0-2.362-.229-3.657-.762l-.534-.229-.533 3.124c.914.38 2.59.762 4.343.762 4.038 0 6.705-1.905 6.705-4.8 0-1.6-.99-2.82-3.276-3.81-1.372-.685-2.21-1.066-2.21-1.752 0-.61.686-1.22 2.21-1.22 1.295 0 2.21.23 2.895.534l.38.153.61-2.972z" fill="#293688"/><path d="M41.83 17.182c-.914 0-1.6.076-1.98.99l-5.715 12.724h4.114l.762-2.286h4.876l.457 2.286h3.657l-3.2-13.714H41.83zm-1.752 9.143c.228-.686 1.523-4.039 1.523-4.039s.305-.838.534-1.371l.228 1.295s.762 3.429.915 4.19h-3.2v-.075z" fill="#3C58BF"/><path d="M42.744 17.182c-.914 0-1.6.076-1.98.99l-6.63 12.724h4.115l.762-2.286h4.876l.457 2.286h3.657l-3.2-13.714h-2.057zm-2.666 9.143c.304-.762 1.523-4.039 1.523-4.039s.305-.838.534-1.371l.228 1.295s.762 3.429.915 4.19h-3.2v-.075z" fill="#293688"/><path d="M10.591 26.782l-.38-1.981c-.686-2.286-2.896-4.8-5.334-6.02l3.429 12.191h4.114l6.171-13.714h-4.114l-3.886 9.524z" fill="#3C58BF"/><path d="M10.591 26.782l-.38-1.981c-.686-2.286-2.896-4.8-5.334-6.02l3.429 12.191h4.114l6.171-13.714H15.24l-4.648 9.524z" fill="#293688"/><path d="M0 17.182l.686.152c4.876 1.143 8.228 4.038 9.523 7.467l-1.37-6.476c-.23-.915-.915-1.143-1.753-1.143H0z" fill="#FFBC00"/><path d="M0 17.182c4.876 1.143 8.914 4.114 10.21 7.543l-1.296-5.41c-.228-.914-.99-1.448-1.828-1.448L0 17.182z" fill="#F7981D"/><path d="M0 17.182c4.876 1.143 8.914 4.114 10.21 7.543l-.915-2.972c-.228-.914-.533-1.829-1.6-2.21L0 17.183z" fill="#ED7C00"/><path d="M14.399 26.324l-2.59-2.59-1.22 2.895-.305-1.905c-.685-2.286-2.895-4.8-5.333-6.019l3.429 12.19h4.114l1.905-4.57zm7.086 4.571l-3.276-3.352-.61 3.352h3.886zm8.761-4.723c.305.305.457.533.38.838 0 .914-1.218 1.371-2.285 1.371-1.524 0-2.362-.228-3.657-.762l-.534-.228-.533 3.124c.915.38 2.59.762 4.343.762 2.438 0 4.42-.686 5.562-1.905l-3.276-3.2zm4.42 4.723h3.581l.762-2.286h4.876l.457 2.286H48l-1.295-5.562-4.571-4.419.228 1.22s.762 3.428.915 4.19h-3.2c.304-.762 1.523-4.039 1.523-4.039s.305-.838.534-1.37" fill="#051244"/></g><defs><clipPath id="clip0_2363_1038"><path fill="#fff" d="M0 0h48v48H0z"/></clipPath></defs></svg>