<svg width="32" height="32" fill="none" xmlns="http://www.w3.org/2000/svg"><path d="M16 32c8.837 0 16-7.163 16-16S24.837 0 16 0 0 7.163 0 16s7.163 16 16 16z" fill="#4D76A1"/><path fill-rule="evenodd" clip-rule="evenodd" d="M15.396 23.017h1.256s.38-.041.573-.25c.178-.192.172-.552.172-.552s-.024-1.685.758-1.933c.771-.244 1.761 1.629 2.81 2.349.794.545 1.397.425 1.397.425l2.805-.039s1.468-.09.772-1.244c-.057-.095-.405-.854-2.086-2.414-1.76-1.633-1.524-1.369.596-4.193 1.29-1.72 1.806-2.77 1.645-3.22-.154-.429-1.103-.315-1.103-.315l-3.159.02s-.234-.033-.408.071c-.17.102-.279.34-.279.34s-.5 1.33-1.166 2.462c-1.407 2.39-1.97 2.515-2.2 2.367-.534-.346-.4-1.389-.4-2.13 0-2.315.35-3.28-.684-3.53-.344-.083-.597-.137-1.475-.146-1.127-.012-2.081.003-2.621.268-.36.176-.637.568-.468.59.209.029.682.128.932.47.324.44.313 1.429.313 1.429s.186 2.725-.435 3.063c-.426.233-1.01-.241-2.264-2.409-.642-1.11-1.127-2.337-1.127-2.337s-.094-.229-.26-.352c-.203-.148-.486-.196-.486-.196l-3.002.02s-.45.013-.616.209c-.147.174-.012.534-.012.534s2.35 5.499 5.011 8.27c2.44 2.54 5.211 2.373 5.211 2.373z" fill="#fff"/></svg>