<svg width="32" height="32" fill="none" xmlns="http://www.w3.org/2000/svg"><path d="M16 0c8.837 0 16 7.164 16 16s-7.163 16-16 16S0 24.836 0 16 7.163 0 16 0z" fill="#C4302B"/><path d="M15.613 13.002c.506 0 .902-.161 1.192-.39.288-.23.432-.543.432-.945V9.24c0-.357-.147-.652-.44-.88-.295-.226-.672-.34-1.134-.34-.505 0-.909.108-1.208.323-.3.216-.45.504-.45.869v2.434c0 .4.146.716.438.953.292.237.683.402 1.17.402zm-.529-3.671c0-.092.048-.166.143-.225a.721.721 0 01.372-.085c.166 0 .3.028.401.085.102.059.152.133.152.225v2.306c0 .114-.05.204-.15.269a.739.739 0 01-.403.097c-.165 0-.293-.031-.382-.096a.313.313 0 01-.133-.27V9.33zm3.877 3.668c.178 0 .359-.102.547-.204.19-.104.371-.256.545-.454v.539h.945V8.015h-.945v3.693a1.342 1.342 0 01-.29.26.536.536 0 01-.265.104c-.089 0-.154-.025-.192-.078-.04-.051-.062-.134-.062-.248v-3.73h-.943v4.065c0 .29.057.507.166.65.111.146.275.268.494.268zm2.748 2.01h-11.42c-1.816 0-3.287 1.416-3.287 3.159v2.67c0 1.744 1.471 3.159 3.287 3.159h11.42c1.815 0 3.287-1.415 3.287-3.16v-2.67c0-1.742-1.472-3.157-3.287-3.157zm-9.721 2.71h-1.01v4.183h-.977V17.72h-1.01v-.713h2.997v.713zm3.014 4.24h-1.053v-.433c-.196.16-.397.283-.609.365a1.597 1.597 0 01-.61.127c-.245 0-.427-.06-.55-.178-.123-.117-.186-.293-.186-.528V18.01h1.053v3.029c0 .094.022.16.064.202.046.043.12.062.217.062a.726.726 0 00.294-.083 1.33 1.33 0 00.327-.212v-3h1.053v3.952zm3.986-.751c0 .259-.082.456-.245.595-.161.139-.399.207-.706.207-.205 0-.387-.026-.545-.08a1.372 1.372 0 01-.445-.247v.28h-1.051v-4.956h1.051v1.597c.142-.11.29-.196.446-.254.159-.06.319-.087.48-.087.329 0 .58.077.753.232.175.156.262.385.262.684v2.029zm4.006-1.115h-1.94v.714c0 .199.032.337.099.415.068.077.183.115.344.115.17 0 .286-.033.354-.098.066-.066.102-.21.102-.433v-.172h1.043v.194c0 .388-.125.68-.383.877-.254.196-.634.294-1.139.294-.455 0-.813-.104-1.074-.312-.26-.206-.392-.494-.392-.858v-1.702c0-.327.144-.597.432-.804.287-.206.655-.31 1.11-.31.464 0 .821.097 1.071.288.25.19.373.467.373.825v.967zm-11.572-7.08h1.193v-2.907l1.389-4.1h-1.213l-.738 2.802h-.076l-.774-2.802H10l1.422 4.23v2.777zm6.06 5.83l-.221.036-.215.11v2.279a.916.916 0 00.247.129l.251.039c.128 0 .221-.025.281-.078.059-.051.09-.135.09-.25v-1.89c0-.124-.035-.217-.109-.28a.493.493 0 00-.324-.095z" fill="#fff"/><path d="M21.554 18.676c-.162 0-.277.034-.348.104-.07.067-.104.18-.104.34v.382h.896v-.382c0-.16-.037-.272-.106-.34-.07-.07-.184-.104-.338-.104z" fill="#fff"/></svg>